<svg width="512" height="512" viewBox="0 0 512 512" fill="none" xmlns="http://www.w3.org/2000/svg">
<g clip-path="url(#clip0_138253_58)">
<mask id="mask0_138253_58" style="mask-type:luminance" maskUnits="userSpaceOnUse" x="0" y="0" width="512" height="512">
<path d="M512 0H0V512H512V0Z" fill="white"/>
</mask>
<g mask="url(#mask0_138253_58)">
<path d="M256 512C397.385 512 512 397.385 512 256C512 114.615 397.385 0 256 0C114.615 0 0 114.615 0 256C0 397.385 114.615 512 256 512Z" fill="url(#paint0_radial_138253_58)"/>
<path d="M256 431C352.65 431 431 352.65 431 256C431 159.35 352.65 81 256 81C159.35 81 81 159.35 81 256C81 352.65 159.35 431 256 431Z" fill="#FFCE1F"/>
<path d="M242.102 243.4H334.502V296.8H242.102V243.4ZM246.902 364H176.102V154H346.802V207.4H246.902V364Z" fill="#444444"/>
</g>
</g>
<defs>
<radialGradient id="paint0_radial_138253_58" cx="0" cy="0" r="1" gradientUnits="userSpaceOnUse" gradientTransform="translate(256 256) rotate(90) scale(256)">
<stop offset="1" stop-color="#444444"/>
</radialGradient>
<clipPath id="clip0_138253_58">
<rect width="512" height="512" fill="white"/>
</clipPath>
</defs>
</svg>
